<?xml version="1.0" encoding="UTF-8" standalone="no"?>
<!-- Created with Inkscape (http://www.inkscape.org/) -->

<svg
   width="171.29289mm"
   height="22.900864mm"
   viewBox="0 0 171.29289 22.900864"
   version="1.1"
   id="svg1"
   xml:space="preserve"
   inkscape:version="1.4.3 (0d15f75, 2025-12-25)"
   sodipodi:docname="vanbora-escrita.svg"
   xmlns:inkscape="http://www.inkscape.org/namespaces/inkscape"
   xmlns:sodipodi="http://sodipodi.sourceforge.net/DTD/sodipodi-0.dtd"
   xmlns="http://www.w3.org/2000/svg"
   xmlns:svg="http://www.w3.org/2000/svg"><sodipodi:namedview
     id="namedview1"
     pagecolor="#ffffff"
     bordercolor="#000000"
     borderopacity="0.25"
     inkscape:showpageshadow="2"
     inkscape:pageopacity="0.0"
     inkscape:pagecheckerboard="0"
     inkscape:deskcolor="#d1d1d1"
     inkscape:document-units="mm"
     inkscape:zoom="0.97386896"
     inkscape:cx="385.57549"
     inkscape:cy="196.63836"
     inkscape:window-width="1920"
     inkscape:window-height="991"
     inkscape:window-x="-9"
     inkscape:window-y="-9"
     inkscape:window-maximized="1"
     inkscape:current-layer="layer1" /><defs
     id="defs1" /><g
     inkscape:label="Camada 1"
     inkscape:groupmode="layer"
     id="layer1"
     transform="translate(-15.502617,-63.89676)"><a
       id="a98"><path
         style="fill:#e29a05;fill-opacity:1;stroke-width:0.135841"
         d="M 19.111616,80.954315 C 16.529162,69.330384 15.521719,64.751727 15.503114,64.554284 c -0.01634,-0.173389 0.360955,-0.209272 2.531198,-0.240731 2.813402,-0.04078 3.288729,0.02665 3.654161,0.518411 0.158198,0.212887 0.587732,1.906601 1.187002,4.68053 1.720548,7.964138 1.995211,9.074155 2.226263,8.997137 0.08891,-0.02964 2.189871,-3.227559 4.668811,-7.106496 l 4.507158,-7.052612 3.148862,-0.0365 3.148864,-0.0365 -0.377806,0.647784 c -0.207791,0.356283 -2.097254,3.337444 -4.198805,6.624805 -2.101554,3.28736 -4.899922,7.690437 -6.2186,9.784619 -1.318678,2.09418 -2.599153,4.040767 -2.845501,4.32575 l -0.447904,0.518146 -1.629974,0.110877 c -0.896485,0.06098 -2.275943,0.145656 -3.065461,0.188164 l -1.435487,0.07729 z"
         id="path88" /><path
         style="fill:#e29a05;fill-opacity:1;stroke-width:0.135841"
         d="m 54.931889,86.459553 -1.304425,-0.04417 -0.419214,-1.591456 c -0.885042,-3.359882 -0.880819,-3.763973 0.06391,-6.115817 0.33932,-0.844716 0.581949,-1.570847 0.539171,-1.613625 -0.04278,-0.04278 -0.523277,0.336939 -1.067779,0.843812 -2.610774,2.430359 -4.620392,3.417263 -8.293965,4.073081 -2.254057,0.402404 -2.006042,0.210671 -3.495421,2.702229 l -1.018813,1.70435 -3.090389,0.0034 c -1.925867,0.0021 -3.090391,-0.04668 -3.090391,-0.129476 0,-0.164794 2.025467,-3.341905 8.791935,-13.790872 l 5.278027,-8.150479 3.199125,-0.03637 3.199124,-0.03637 0.786056,2.789653 c 0.432332,1.534311 0.852263,2.830571 0.93318,2.88058 0.08311,0.05136 0.932765,-0.729999 1.952686,-1.795727 0.993061,-1.037659 1.805564,-1.847938 1.805564,-1.800622 0,0.04732 -0.679677,1.476327 -1.510392,3.175579 -0.830715,1.69925 -1.541743,3.323289 -1.580063,3.608975 -0.0662,0.493596 -0.05098,0.51943 0.30602,0.51943 0.206632,0 0.61241,-0.07092 0.901732,-0.157607 0.289322,-0.08668 0.563869,-0.119774 0.610108,-0.07354 0.04624,0.04624 -0.222179,0.499216 -0.596479,1.006615 -0.937102,1.270328 -1.254173,1.820968 -1.254768,2.179079 -5.3e-4,0.380609 0.222771,0.40046 0.340275,0.03024 0.10033,-0.316108 1.902338,-1.628452 2.227546,-1.622245 0.183869,0.0035 0.180429,0.02508 -0.02289,0.143476 -0.131617,0.07664 -0.404027,0.456835 -0.605356,0.844878 -0.539702,1.040231 -0.482597,1.754674 0.468995,5.867503 1.102971,4.767096 1.051314,4.397097 0.635971,4.555011 -0.325763,0.123854 -1.672981,0.132615 -4.689086,0.03049 z m -6.868875,-9.336312 c 2.104435,-0.576762 2.88299,-0.895265 4.047535,-1.655828 0.908169,-0.593125 1.377379,-1.093481 1.806345,-1.926265 0.378283,-0.734383 0.126484,-0.672055 -0.73701,0.182428 -0.444368,0.439732 -0.840991,0.766463 -0.881383,0.726069 -0.04039,-0.04039 0.03131,-0.724649 0.159335,-1.520568 0.176213,-1.095468 0.194596,-1.48531 0.07565,-1.604259 -0.252788,-0.252785 -0.468624,0.02818 -1.112845,1.448668 -0.325043,0.716703 -0.642678,1.251405 -0.705858,1.188225 -0.06318,-0.06318 -0.17802,-0.478814 -0.255201,-0.923631 -0.321541,-1.853139 -0.413645,-2.117154 -0.723096,-2.07273 -0.195961,0.02813 -0.533408,0.43321 -1.052936,1.26397 -1.300099,2.078942 -2.974935,4.999112 -2.974935,5.186963 0,0.278217 0.494702,0.216644 2.354402,-0.293042 z"
         id="path89" /><path
         style="fill:#e29a05;fill-opacity:1;stroke-width:0.135841"
         d="m 62.417097,86.161532 c 0,-0.631028 4.301916,-21.593466 4.466039,-21.762182 0.04655,-0.04786 1.216261,-0.113554 2.599346,-0.145987 l 2.514703,-0.05897 2.026185,3.270337 c 2.833216,4.572918 5.098163,8.113475 5.388099,8.422656 0.241581,0.257617 0.248047,0.255902 0.384014,-0.101719 0.07606,-0.200062 0.660884,-2.793682 1.299599,-5.763604 0.638714,-2.969921 1.197536,-5.516295 1.241824,-5.658612 0.07698,-0.247364 0.203682,-0.254783 2.877878,-0.168537 1.538542,0.04962 2.846618,0.139486 2.906832,0.199702 0.13975,0.139748 -3.418454,17.744734 -4.219213,20.875474 l -0.24321,0.950892 -2.405676,0.03711 c -2.345127,0.03617 -2.413442,0.02933 -2.714355,-0.271685 -0.169778,-0.169834 -1.661319,-2.478855 -3.314539,-5.131157 -3.300071,-5.294384 -4.063299,-6.423978 -4.289517,-6.348572 -0.202195,0.0674 -0.338932,0.627476 -1.467001,6.008968 -0.532485,2.540233 -1.037812,4.828495 -1.122953,5.085027 -0.20896,0.629611 -0.473935,0.689851 -3.448952,0.784077 l -2.479103,0.07852 z"
         id="path90" /><path
         style="fill:#e29a05;fill-opacity:1;stroke-width:0.135841"
         d="m 89.901703,86.444234 c -0.834636,-0.04808 -1.563592,-0.133768 -1.619903,-0.190423 -0.124111,-0.124868 -0.08914,-0.306382 1.341131,-6.96074 0.626284,-2.913798 1.592299,-7.487412 2.146702,-10.163591 l 1.008004,-4.865774 6.792066,0.0594 c 7.316577,0.06399 7.970207,0.120552 9.503067,0.822317 2.00565,0.918218 3.09648,3.054207 2.65234,5.193617 -0.27538,1.326526 -0.78156,2.202045 -2.01333,3.482417 l -1.13966,1.184616 0.85345,0.988846 c 1.16404,1.348711 1.51489,2.147697 1.50181,3.420017 -0.0393,3.820573 -2.84361,6.236163 -7.96225,6.858516 -1.43382,0.174329 -10.86208,0.297588 -13.063427,0.170778 z m 11.912947,-4.643638 c 1.30024,-0.1597 2.22257,-0.553072 2.63828,-1.125226 0.21791,-0.299908 0.27681,-0.581556 0.26987,-1.290494 -0.0165,-1.685645 -0.40497,-1.926678 -3.24975,-2.016419 -1.04684,-0.03302 -2.697161,-0.01082 -3.667377,0.04932 l -1.76403,0.10936 -0.306438,1.562174 c -0.389366,1.984933 -0.36699,2.603227 0.09886,2.731833 0.540014,0.14908 4.716335,0.134734 5.980585,-0.02056 z m 1.5953,-8.945904 c 0.84973,-0.120973 1.54264,-0.694381 1.96264,-1.624129 0.46232,-1.023472 0.0829,-1.900465 -0.94567,-2.186128 -0.76713,-0.21304 -6.54659,-0.189862 -6.626285,0.02658 -0.03439,0.09339 -0.185708,0.896578 -0.336267,1.784861 -0.307641,1.815055 -0.275984,1.938282 0.519539,2.022237 0.913069,0.09636 4.699503,0.08002 5.426043,-0.02342 z"
         id="path91" /><path
         style="fill:#e29a05;fill-opacity:1;stroke-width:0.135841"
         d="m 122.82284,86.688857 c -2.87855,-0.334576 -5.84064,-1.999731 -7.37017,-4.143176 -1.20624,-1.690391 -1.62362,-3.485547 -1.5182,-6.529697 0.0744,-2.147152 0.31333,-3.016205 1.38144,-5.024054 2.58029,-4.850445 7.27303,-7.366865 13.188,-7.071889 5.12941,0.255802 8.69759,2.877735 9.86857,7.25152 0.39834,1.48789 0.39792,3.750881 -0.001,5.387972 -0.92377,3.790889 -3.63906,7.151759 -7.15074,8.850892 -2.3751,1.149202 -5.46403,1.619435 -8.3979,1.278432 z m 3.84684,-5.159092 c 1.40033,-0.181692 2.31737,-0.661574 3.47558,-1.818764 1.60207,-1.600639 2.23013,-3.250525 2.23013,-5.858428 0,-1.412158 -0.0272,-1.56641 -0.41246,-2.337329 -0.80949,-1.619933 -2.23895,-2.492089 -4.24443,-2.589649 -1.45859,-0.07096 -2.60167,0.137814 -3.76528,0.687692 -1.71036,0.808252 -3.25423,2.843945 -3.74704,4.940723 -0.29595,1.259216 -0.20179,3.224811 0.20555,4.291005 0.32512,0.850976 1.30092,2.03414 1.95777,2.373815 0.79388,0.410533 2.5525,0.537691 4.30018,0.310935 z"
         id="path92" /><path
         style="fill:#e29a05;fill-opacity:1;stroke-width:0.135841"
         d="m 140.69848,86.439419 c -0.54011,-0.05478 -1.02259,-0.140171 -1.07217,-0.189749 -0.0496,-0.04958 -0.0234,-0.412522 0.0582,-0.806542 0.0816,-0.394023 0.9423,-4.475814 1.91273,-9.070647 0.97043,-4.594834 1.9337,-9.199605 2.1406,-10.232824 l 0.37617,-1.878581 6.05078,0.06076 c 6.61621,0.06643 7.28373,0.133006 8.89114,0.886756 1.61324,0.756481 2.97261,2.365227 3.40259,4.026802 0.26661,1.030272 0.26862,2.77146 0.004,3.814398 -0.57832,2.282798 -2.21073,4.4592 -4.25325,5.670637 -0.60268,0.357457 -1.13069,0.759883 -1.17335,0.894278 -0.11489,0.362003 0.1614,1.032275 1.6211,3.9326 0.72638,1.443276 1.28204,2.662778 1.23482,2.710006 -0.10815,0.108145 -5.70671,0.361312 -5.94742,0.268943 -0.0977,-0.03749 -0.879,-1.442304 -1.73623,-3.121816 l -1.55861,-3.053651 -1.76409,-0.08438 c -0.97025,-0.04641 -1.80473,-0.03988 -1.85439,0.0145 -0.0497,0.05439 -0.31489,1.107511 -0.58938,2.340271 -0.63391,2.846949 -0.84465,3.497996 -1.19258,3.684201 -0.34484,0.184555 -3.21856,0.26919 -4.55103,0.134036 z M 153.7704,75.208452 c 0.64411,-0.195758 0.97285,-0.405929 1.56748,-1.002134 0.82815,-0.830336 1.08142,-1.430186 1.08142,-2.56124 0,-1.138973 -0.43875,-1.910173 -1.29442,-2.27521 -0.38874,-0.165839 -5.90517,-0.456105 -5.90517,-0.310722 0,0.03382 -0.27444,1.463929 -0.60986,3.178011 -0.33543,1.714082 -0.61051,3.169063 -0.61129,3.233288 -7.9e-4,0.06423 1.11418,0.08729 2.47768,0.05124 1.86098,-0.04919 2.68233,-0.127296 3.29416,-0.313237 z"
         id="path93" /><path
         style="fill:#e29a05;fill-opacity:1;stroke-width:0.135841"
         d="m 161.33602,86.461752 -0.44902,-0.05535 0.33407,-0.568158 c 0.33855,-0.575765 6.66552,-10.443729 10.97738,-17.121063 1.29562,-2.006391 2.51774,-3.824968 2.71582,-4.04128 l 0.36014,-0.393301 h 3.12622 3.12623 l 2.04177,8.252362 c 1.67668,6.776746 2.61418,10.695765 3.21558,13.44195 0.0921,0.420462 -0.32585,0.474943 -3.24493,0.422994 -2.32518,-0.04138 -2.4313,-0.0553 -2.66988,-0.350266 -0.13665,-0.168949 -0.4311,-1.075126 -0.65435,-2.01373 -0.22324,-0.938604 -0.43058,-1.731235 -0.46074,-1.7614 -0.0302,-0.03017 -2.2823,-0.09522 -5.00474,-0.144571 l -4.94989,-0.08972 -0.74713,1.336386 c -1.15069,2.058234 -1.79236,2.869158 -2.40493,3.039264 -0.48377,0.134339 -4.32483,0.167518 -5.3116,0.04588 z m 16.61414,-8.844944 0.6792,-0.09028 -0.023,-0.65637 c -0.0248,-0.707514 -0.57257,-3.524948 -1.04547,-5.376984 -0.28915,-1.132398 -0.54406,-1.488512 -0.72092,-1.007123 -0.0503,0.136959 -0.75686,1.366599 -1.5701,2.732532 -1.53185,2.572935 -2.32515,4.102772 -2.19507,4.233108 0.2101,0.210524 3.65583,0.327226 4.87532,0.165121 z"
         id="path94" /><path
         style="fill:#e19704;fill-opacity:1;stroke-width:0.192109"
         d="m 89.186447,86.323118 c -0.452633,-0.04902 -0.817517,-0.190505 -0.818832,-0.31751 -0.0013,-0.125997 1.011132,-5.048615 2.249855,-10.939148 l 2.252226,-10.710058 4.329867,0.0098 c 2.381427,0.0054 5.719907,0.07874 7.418837,0.163012 2.69683,0.133771 3.22118,0.214265 4.13034,0.63404 3.57264,1.649553 3.92478,5.365718 0.81718,8.623715 -0.79595,0.83447 -1.05304,1.226942 -0.9204,1.40511 0.10122,0.135972 0.58981,0.78219 1.08575,1.436042 1.04999,1.384302 1.27829,2.356754 0.94444,4.022923 -0.55962,2.792947 -2.80517,4.582446 -6.68775,5.329547 -1.38308,0.266136 -13.020224,0.535443 -14.801513,0.342537 z M 103.35446,81.51601 c 0.47547,-0.211042 0.99316,-0.539515 1.15043,-0.729938 0.37626,-0.455597 0.36289,-2.511615 -0.0188,-2.893319 -0.58994,-0.589939 -3.73727,-0.829652 -7.128818,-0.54296 l -1.444559,0.122111 -0.301633,1.813943 c -0.296484,1.78298 -0.268401,2.302894 0.141082,2.61197 0.113366,0.08557 1.675751,0.121004 3.471968,0.07874 2.73638,-0.06438 3.406,-0.139046 4.13034,-0.460549 z m 0.91427,-8.897898 c 0.34436,-0.209957 0.7979,-0.66349 1.00786,-1.007851 0.8597,-1.41003 0.21593,-2.516486 -1.59588,-2.742858 -1.45397,-0.181663 -5.640783,-0.04225 -5.876336,0.195662 -0.104609,0.105661 -0.299906,0.953867 -0.433991,1.884904 -0.210082,1.45872 -0.205031,1.717318 0.03654,1.870118 0.154183,0.09753 1.620292,0.178324 3.258017,0.179546 2.6355,0.0019 3.04964,-0.04164 3.60379,-0.379521 z"
         id="path96" /><path
         style="fill:#e19704;fill-opacity:1;stroke-width:0.192109"
         d="m 62.532056,85.975146 c 0.04577,-0.214905 0.438583,-2.206162 0.872915,-4.425018 1.648662,-8.422465 3.494988,-16.910973 3.70781,-17.046702 0.121719,-0.07763 1.264277,-0.142465 2.539019,-0.144081 l 2.317715,-0.0029 2.179188,3.505983 c 3.549102,5.709967 5.216099,8.212645 5.470324,8.212645 0.157332,0 0.67814,-1.987428 1.521383,-5.805659 0.705189,-3.193111 1.346639,-5.870136 1.425445,-5.948939 0.0788,-0.07881 1.330527,-0.08962 2.781599,-0.02402 2.28491,0.10328 2.638314,0.162076 2.638314,0.438931 0,0.356105 -3.215984,16.298349 -3.895796,19.312207 l -0.433327,1.921087 -2.029605,0.170008 c -1.609953,0.134858 -2.144729,0.114831 -2.586382,-0.09685 -0.411935,-0.197435 -1.39641,-1.590988 -3.784412,-5.35694 -1.7752,-2.799548 -3.47065,-5.390779 -3.767666,-5.758291 -0.510821,-0.632063 -0.551008,-0.647649 -0.743064,-0.288163 -0.11167,0.209021 -0.693994,2.661587 -1.294051,5.450144 -0.600056,2.788558 -1.166254,5.268008 -1.258218,5.509885 -0.1949,0.512632 -0.74553,0.615693 -3.78206,0.707882 -1.887286,0.0573 -1.959171,0.04463 -1.879131,-0.331158 z"
         id="path97" /><path
         style="fill:#e19704;fill-opacity:1;stroke-width:0.0339603"
         d="m 58.987102,71.418142 c 0,-0.248142 1.183894,-1.489329 1.781077,-1.867273 0.161287,-0.102074 0.292058,-0.129633 0.406588,-0.08568 0.207314,0.07955 -0.257038,0.69495 -0.931132,1.234012 -0.347787,0.278119 -0.878891,0.631422 -1.081056,0.719145 -0.180144,0.07817 -0.175477,0.07817 -0.175477,-2.01e-4 z"
         id="path98" /></a></g></svg>
